<?xml version="1.0" encoding="utf-8"?>
<!-- Generator: Adobe Illustrator 24.1.2, SVG Export Plug-In . SVG Version: 6.00 Build 0)  -->
<svg version="1.1" id="Layer_1" xmlns="http://www.w3.org/2000/svg" xmlns:xlink="http://www.w3.org/1999/xlink" x="0px" y="0px"
	 viewBox="0 0 300 300" style="enable-background:new 0 0 300 300;" xml:space="preserve">
<style type="text/css">
	.st0{fill:none;stroke:#000000;stroke-width:0;stroke-linecap:round;stroke-linejoin:round;}
</style>
<path class="st0" d="M270.23,270.14l-59.7-20.89c-19.58,12.61-42.87,19.92-67.84,19.92c-69.33,0-125.74-56.4-125.74-125.74
	C16.95,74.1,73.36,17.7,142.69,17.7s125.73,56.4,125.73,125.73c0,23.92-6.71,46.29-18.34,65.35L270.23,270.14z M243.26,209.54
	c4.87-7.52,11.14-19.02,15.24-34.12c0,0,4.23-15.67,4.23-31.66c0-66.17-53.83-120.01-120.01-120.01S22.71,77.59,22.71,143.76
	c0,66.18,53.84,120.02,120.02,120.02c16.78,0,33.75-4.83,33.75-4.83c15.07-4.22,26.68-10.39,34.44-15.27
	c17.36,6.44,34.72,12.88,52.08,19.32C256.42,245.18,249.84,227.36,243.26,209.54z"/>
</svg>
