<?xml version="1.0" encoding="utf-8"?>
<!-- Generator: Adobe Illustrator 24.1.2, SVG Export Plug-In . SVG Version: 6.00 Build 0)  -->
<svg version="1.1" id="Layer_2_xA0_Image_1_" xmlns="http://www.w3.org/2000/svg" xmlns:xlink="http://www.w3.org/1999/xlink"
	 x="0px" y="0px" viewBox="0 0 60 60" style="enable-background:new 0 0 60 60;" xml:space="preserve">
<style type="text/css">
	.st0{fill:none;stroke:#000000;stroke-width:0;stroke-linecap:round;stroke-linejoin:round;}
</style>
<g>
	<g>
		<path class="st0" d="M8.63,32.34L29.89,53.6l21.26-21.26c3.71-3.71,5.05-8.37,3.78-13.13c-1.46-5.45-6.1-10.09-11.55-11.55
			c-4.76-1.27-9.42,0.07-13.13,3.78l-0.35,0.35l-0.35-0.35c-2.64-2.64-5.82-4.01-9.19-4.01c-1.13,0-2.28,0.15-3.44,0.46
			C11.41,9.37,6.56,14.23,5.09,19.71C3.85,24.33,5.11,28.82,8.63,32.34z"/>
	</g>
	<g>
		<path class="st0" d="M7.92,33.05l21.96,21.96l21.96-21.96c3.97-3.97,5.41-8.98,4.04-14.09C54.33,13.17,49.41,8.25,43.62,6.7
			c-4.96-1.33-9.83-0.02-13.74,3.69c-3.73-3.52-8.42-4.75-13.24-3.46C10.73,8.51,5.7,13.55,4.12,19.45
			C2.79,24.43,4.14,29.26,7.92,33.05z"/>
	</g>
</g>
</svg>
