<?xml version="1.0" encoding="utf-8"?>
<!-- Generator: Adobe Illustrator 24.1.2, SVG Export Plug-In . SVG Version: 6.00 Build 0)  -->
<svg version="1.1" id="Layer_1" xmlns="http://www.w3.org/2000/svg" xmlns:xlink="http://www.w3.org/1999/xlink" x="0px" y="0px"
	 viewBox="0 0 1366 768" style="enable-background:new 0 0 1366 768;" xml:space="preserve">
<style type="text/css">
	.st0{fill:none;}
</style>
<g>
	<path class="st0" d="M978,60H401c-16.57,0-30,13.43-30,30v577c0,16.57,13.43,30,30,30h577c16.57,0,30-13.43,30-30V90
		C1008,73.43,994.57,60,978,60z M570.79,672H401c-2.76,0-5-2.24-5-5V538.21h174.79V672z M570.79,513.21H396V391h174.79V513.21z
		 M570.79,366H396V248.21h174.79V366z M570.79,223.21H396V90c0-2.76,2.24-5,5-5h169.79V223.21z M790.79,672h-195V538.21h195V672z
		 M790.79,513.21h-195V391h195V513.21z M790.79,366h-195V248.21h195V366z M790.79,223.21h-195V85h195V223.21z M983,667
		c0,2.76-2.24,5-5,5H815.79V538.21H983V667z M983,513.21H815.79V391H983V513.21z M983,366H815.79V248.21H983V366z M983,223.21
		H815.79V85H978c2.76,0,5,2.24,5,5V223.21z"/>
</g>
</svg>
