<?xml version="1.0" encoding="utf-8"?>
<!-- Generator: Adobe Illustrator 24.1.2, SVG Export Plug-In . SVG Version: 6.00 Build 0)  -->
<svg version="1.1" id="Layer_1" xmlns="http://www.w3.org/2000/svg" xmlns:xlink="http://www.w3.org/1999/xlink" x="0px" y="0px"
	 viewBox="0 0 667.4 669.6" style="enable-background:new 0 0 667.4 669.6;" xml:space="preserve">
<style type="text/css">
	.st0{fill:none;}
</style>
<g>
	<path class="st0" d="M626.8,19.7h-577c-16.6,0-30,13.4-30,30v577c0,16.6,13.4,30,30,30h577c16.6,0,30-13.4,30-30v-577
		C656.8,33.2,643.3,19.7,626.8,19.7z M219.5,631.7H49.8c-2.8,0-5-2.2-5-5V497.9h174.8V631.7z M219.5,472.9H44.8V350.7h174.8V472.9z
		 M219.5,325.7H44.8V207.9h174.8V325.7z M219.5,182.9H44.8V49.7c0-2.8,2.2-5,5-5h169.8V182.9z M439.5,631.7h-195V497.9h195V631.7z
		 M439.5,472.9h-195V350.7h195V472.9z M439.5,325.7h-195V207.9h195V325.7z M439.5,182.9h-195V44.7h195V182.9z M631.8,626.7
		c0,2.8-2.2,5-5,5H464.5V497.9h167.2V626.7z M631.8,472.9H464.5V350.7h167.2V472.9z M631.8,325.7H464.5V207.9h167.2V325.7z
		 M631.8,182.9H464.5V44.7h162.2c2.8,0,5,2.2,5,5V182.9z"/>
</g>
</svg>
