<?xml version="1.0" encoding="utf-8"?>
<!-- Generator: Adobe Illustrator 24.1.2, SVG Export Plug-In . SVG Version: 6.00 Build 0)  -->
<svg version="1.1" xmlns="http://www.w3.org/2000/svg" xmlns:xlink="http://www.w3.org/1999/xlink" x="0px" y="0px"
	 viewBox="0 0 300 300" style="enable-background:new 0 0 300 300;" xml:space="preserve">
<style type="text/css">
	.st0{fill:none;stroke:#000000;stroke-width:0;stroke-linecap:round;stroke-linejoin:round;}
</style>
<g id="Layer_1">
</g>
<g id="Layer_2">
	<path class="st0" d="M260.8,268.92c-25.76-27.72-51.51-55.43-77.27-83.15c-16.32,15.76-38.51,25.47-62.94,25.47
		c-49.98,0-90.64-40.66-90.64-90.64s40.66-90.64,90.64-90.64s90.64,40.66,90.64,90.64c0,21.23-7.34,40.78-19.61,56.25
		c26.08,28.07,52.16,56.13,78.24,84.2c-0.17,0.66,0,5.67-1.83,6.63S266.28,269.75,260.8,268.92z M199.24,120.6
		c0-43.36-35.28-78.64-78.64-78.64c-43.36,0-78.64,35.28-78.64,78.64c0,43.36,35.28,78.64,78.64,78.64
		C163.96,199.24,199.24,163.96,199.24,120.6z"/>
</g>
</svg>
